<svg width="61" height="21" viewBox="0 0 61 21" fill="none" xmlns="http://www.w3.org/2000/svg">
<path d="M6.89554 21H2.12205V4.72477H0V0H4.59366C5.86495 0 6.89554 1.04467 6.89554 2.33333V21ZM33.9483 21H29.1737V4.72477H24.9307V21H20.1561V4.72477H15.9131V21H11.1396V2.33333C11.1396 1.04467 12.1702 0 13.4415 0H31.6464C32.9177 0 33.9483 1.04467 33.9483 2.33333V21ZM43.5714 21H38.1913L38.246 8.59091H43.6261L43.5714 21ZM61 21H56.2265V4.72477H51.7048V21H47.2089V2.33333C47.2089 1.04467 48.2395 0 49.5108 0H58.6981C59.9694 0 61 1.04467 61 2.33333V21Z" fill="#FEFEFE"/>
<path d="M41.1508 0L44.5741 3.37483L41.1508 6.74966L37.7275 3.37483L41.1508 0Z" fill="#FEFEFE"/>
</svg>
